<?xml version="1.0" encoding="UTF-8"?>
<svg id="Ebene_1" data-name="Ebene 1" xmlns="http://www.w3.org/2000/svg" xmlns:xlink="http://www.w3.org/1999/xlink" viewBox="0 0 499.61 498.49">
  <defs>
    <style>
      .cls-1 {
        fill: url(#Unbenannter_Verlauf_2);
      }

      .cls-2 {
        fill: #f18822;
      }
    </style>
    <linearGradient id="Unbenannter_Verlauf_2" data-name="Unbenannter Verlauf 2" x1="74.11" y1="75.08" x2="426.54" y2="427.5" gradientTransform="translate(0 500.49) scale(1 -1)" gradientUnits="userSpaceOnUse">
      <stop offset="0" stop-color="#f18822"/>
      <stop offset="0" stop-color="#f18822"/>
      <stop offset=".39" stop-color="#f18622"/>
      <stop offset=".55" stop-color="#f07f23"/>
      <stop offset=".67" stop-color="#ee7225"/>
      <stop offset=".77" stop-color="#ec6127"/>
      <stop offset=".86" stop-color="#e94a29"/>
      <stop offset=".92" stop-color="#e6352c"/>
    </linearGradient>
  </defs>
  <g id="Persona">
    <g>
      <path class="cls-2" d="m330.61,248.45c0,43.98-35.47,79.45-79.45,79.45s-79.45-35.47-79.45-79.45,35.47-79.45,79.45-79.45c43.98-1.42,79.45,34.05,79.45,79.45q0-1.42,0,0"/>
      <path class="cls-2" d="m320.68,390.32c-45.4,21.28-96.47,21.28-140.45,0-18.44,24.12-34.05,51.07-46.82,79.45,73.77,38.3,160.31,38.3,232.67,0-9.93-28.37-25.54-55.33-45.4-79.45"/>
    </g>
  </g>
  <g id="Bogen">
    <path id="SVGID" class="cls-1" d="m.05,248.45c0,66.68,26.96,129.1,73.77,175.92,12.77-28.37,29.79-56.75,49.65-80.87-53.91-70.93-39.72-170.24,31.21-222.73,70.93-52.49,170.24-38.3,221.32,32.63,43.98,56.75,43.98,136.19,0,192.94,19.86,25.54,36.89,52.49,49.65,80.87,97.89-97.89,99.31-256.78,0-353.25-99.31-97.89-256.78-99.31-353.25,0C25.59,117.93-1.37,180.35.05,248.45"/>
  </g>
</svg>